M48
; DRILL file {KiCad (5.99.0-11497-g0fb864d596)} date Saturday, August 07, 2021 at 02:48:54 PM
; FORMAT={-:-/ absolute / inch / decimal}
; #@! TF.CreationDate,2021-08-07T14:48:54-04:00
; #@! TF.GenerationSoftware,Kicad,Pcbnew,(5.99.0-11497-g0fb864d596)
; #@! TF.FileFunction,Plated,1,2,PTH
FMAT,2
INCH
; #@! TA.AperFunction,Plated,PTH,ComponentDrill
T1C0.0079
; #@! TA.AperFunction,Plated,PTH,ViaDrill
T2C0.0157
; #@! TA.AperFunction,Plated,PTH,ComponentDrill
T3C0.0787
%
G90
G05
T1
X2.4051Y-4.5394
X2.4051Y-4.5906
X2.4563Y-4.5394
X2.4563Y-4.5906
X2.4665Y-5.0832
X2.4665Y-5.1344
X2.4665Y-5.1856
X2.4665Y-5.2368
X2.5075Y-4.5394
X2.5075Y-4.5906
X2.5177Y-5.0832
X2.5177Y-5.1344
X2.5177Y-5.1856
X2.5177Y-5.2368
X2.5587Y-4.5394
X2.5587Y-4.5906
X3.0404Y-4.7305
X3.0404Y-4.7541
X3.0404Y-4.7778
X3.0404Y-4.8014
X3.0404Y-4.825
X3.0404Y-4.8486
X3.0404Y-4.8722
X3.0679Y-4.7305
X3.0679Y-4.7541
X3.0679Y-4.7778
X3.0679Y-4.8014
X3.0679Y-4.825
X3.0679Y-4.8486
X3.0679Y-4.8722
X3.1418Y-5.1438
X3.1418Y-4.4625
X3.1585Y-4.4457
X3.1585Y-5.1606
X3.1612Y-4.4819
X3.1612Y-5.1244
X3.1752Y-4.429
X3.1752Y-5.1773
X3.1779Y-4.4652
X3.1779Y-5.1411
X3.1919Y-4.4123
X3.1919Y-5.194
X3.1946Y-4.4485
X3.1946Y-5.1578
X3.2086Y-4.3956
X3.2086Y-5.2107
X3.2113Y-4.4318
X3.2113Y-5.1745
X3.2253Y-4.3789
X3.2253Y-5.2274
X3.228Y-4.4151
X3.228Y-5.1912
X3.242Y-4.3622
X3.242Y-5.2441
X3.2447Y-4.3984
X3.2447Y-5.2079
X3.2615Y-4.3817
X3.2615Y-5.2246
X3.509Y-5.3276
X3.509Y-5.3551
X3.5103Y-4.2627
X3.5103Y-4.2903
X3.5326Y-5.3276
X3.5326Y-5.3551
X3.5339Y-4.2627
X3.5339Y-4.2903
X3.5562Y-5.3276
X3.5562Y-5.3551
X3.5575Y-4.2627
X3.5575Y-4.2903
X3.5799Y-5.3276
X3.5799Y-5.3551
X3.5811Y-4.2627
X3.5811Y-4.2903
X3.6035Y-5.3276
X3.6035Y-5.3551
X3.6048Y-4.2627
X3.6048Y-4.2903
X3.6271Y-5.3276
X3.6271Y-5.3551
X3.6284Y-4.2627
X3.6284Y-4.2903
X3.6507Y-5.3276
X3.6507Y-5.3551
X3.652Y-4.2627
X3.652Y-4.2903
X3.9039Y-4.3647
X3.9039Y-5.2246
X3.9206Y-4.3814
X3.9206Y-5.2079
X3.9234Y-4.3452
X3.9234Y-5.2441
X3.9373Y-4.3981
X3.9373Y-5.1912
X3.9401Y-4.3619
X3.9401Y-5.2274
X3.954Y-4.4148
X3.954Y-5.1745
X3.9568Y-4.3786
X3.9568Y-5.2107
X3.9707Y-4.4315
X3.9707Y-5.1578
X3.9735Y-4.3953
X3.9735Y-5.194
X3.9874Y-4.4482
X3.9874Y-5.1411
X3.9902Y-4.412
X3.9902Y-5.1773
X4.0041Y-4.4649
X4.0041Y-5.1244
X4.0069Y-4.4287
X4.0069Y-5.1606
X4.0236Y-5.1438
X4.0236Y-4.4454
X4.1053Y-4.7323
X4.1053Y-4.7559
X4.1053Y-4.7795
X4.1053Y-4.8031
X4.1053Y-4.8268
X4.1053Y-4.8504
X4.1053Y-4.874
X4.1329Y-4.7323
X4.1329Y-4.7559
X4.1329Y-4.7795
X4.1329Y-4.8031
X4.1329Y-4.8268
X4.1329Y-4.8504
X4.1329Y-4.874
X4.573Y-4.5444
X4.573Y-4.5956
X4.6242Y-4.5444
X4.6242Y-4.5956
X4.6344Y-5.0832
X4.6344Y-5.1344
X4.6344Y-5.1856
X4.6344Y-5.2368
X4.6754Y-4.5444
X4.6754Y-4.5956
X4.6856Y-5.0832
X4.6856Y-5.1344
X4.6856Y-5.1856
X4.6856Y-5.2368
X4.7265Y-4.5444
X4.7265Y-4.5956
T2
X2.18Y-4.98
X2.25Y-4.93
X2.2539Y-5.1969
X2.2539Y-5.2756
X2.35Y-4.93
X2.35Y-4.98
X2.4213Y-4.7638
X2.5197Y-4.8819
X2.5886Y-4.7638
X2.5886Y-4.8819
X2.8248Y-4.9508
X2.8346Y-5.0689
X2.9134Y-4.9508
X2.9213Y-4.3543
X3.0Y-4.4331
X3.1299Y-5.0295
X3.5827Y-5.5217
X3.5827Y-5.7087
X4.1575Y-4.2205
X4.1732Y-4.9921
X4.2618Y-4.2224
X4.2717Y-5.5217
X4.2717Y-5.6496
X4.3209Y-5.5217
X4.3209Y-5.6004
X4.3483Y-4.9819
X4.37Y-5.52
X4.37Y-5.6
X4.4173Y-5.1969
X4.4173Y-5.2756
X4.4183Y-4.9319
X4.5079Y-5.0295
X4.5183Y-4.9319
X4.5183Y-4.9819
X4.5886Y-4.7677
X4.685Y-4.8819
X4.7559Y-4.7677
X4.7638Y-4.8819
T3
X5.6102Y-3.8189
X5.9252Y-3.8189
T0
M30
