G04 #@! TF.GenerationSoftware,KiCad,Pcbnew,(5.99.0-11497-g0fb864d596)*
G04 #@! TF.CreationDate,2021-08-07T14:48:26-04:00*
G04 #@! TF.ProjectId,K40-LED_PCB,4b34302d-4c45-4445-9f50-43422e6b6963,rev?*
G04 #@! TF.SameCoordinates,Original*
G04 #@! TF.FileFunction,Copper,L2,Bot*
G04 #@! TF.FilePolarity,Positive*
%FSLAX46Y46*%
G04 Gerber Fmt 4.6, Leading zero omitted, Abs format (unit mm)*
G04 Created by KiCad (PCBNEW (5.99.0-11497-g0fb864d596)) date 2021-08-07 14:48:26*
%MOMM*%
%LPD*%
G01*
G04 APERTURE LIST*
G04 #@! TA.AperFunction,ComponentPad*
%ADD10C,0.400000*%
G04 #@! TD*
G04 #@! TA.AperFunction,ComponentPad*
%ADD11C,3.500000*%
G04 #@! TD*
G04 #@! TA.AperFunction,ComponentPad*
%ADD12C,0.300000*%
G04 #@! TD*
G04 #@! TA.AperFunction,ViaPad*
%ADD13C,0.800000*%
G04 #@! TD*
G04 #@! TA.AperFunction,Conductor*
%ADD14C,0.381000*%
G04 #@! TD*
G04 #@! TA.AperFunction,Conductor*
%ADD15C,0.250000*%
G04 #@! TD*
G04 APERTURE END LIST*
D10*
X77225500Y-120155127D03*
X77925000Y-120755127D03*
X77925000Y-121355127D03*
X77225500Y-121955127D03*
X77925000Y-121955127D03*
X77925000Y-122555127D03*
X77925000Y-123155127D03*
X77225500Y-122555127D03*
X77225500Y-121355127D03*
X77225500Y-123755127D03*
X77925000Y-120155127D03*
X77225500Y-123155127D03*
X77925000Y-123755127D03*
X77225500Y-120755127D03*
X82840901Y-132704683D03*
X80224960Y-131077984D03*
X81073488Y-131926512D03*
X81992373Y-131856155D03*
X81497752Y-132350776D03*
X80719581Y-130583363D03*
X80649224Y-131502248D03*
X80295317Y-130159099D03*
X81922016Y-132775040D03*
X79800695Y-130653720D03*
X81143845Y-131007627D03*
X81568109Y-131431891D03*
X82416637Y-132280419D03*
X82346280Y-133199304D03*
X90928200Y-136020366D03*
X91528200Y-136020366D03*
X89728200Y-135320866D03*
X90328200Y-136020366D03*
X89128200Y-136020366D03*
X92128200Y-136020366D03*
X89128200Y-135320866D03*
X92728200Y-135320866D03*
X91528200Y-135320866D03*
X90928200Y-135320866D03*
X89728200Y-136020366D03*
X90328200Y-135320866D03*
X92728200Y-136020366D03*
X92128200Y-135320866D03*
X102199304Y-130653720D03*
X100007627Y-131856155D03*
X100431891Y-131431891D03*
X99159099Y-132704683D03*
X99653720Y-133199305D03*
X101350776Y-131502248D03*
X100856155Y-131007627D03*
X100502248Y-132350776D03*
X101775040Y-131077984D03*
X99583363Y-132280419D03*
X100926512Y-131926512D03*
X101280419Y-130583363D03*
X101704683Y-130159099D03*
X100077984Y-132775040D03*
X104275000Y-123200000D03*
X104974500Y-120800000D03*
X104275000Y-121400000D03*
X104275000Y-120800000D03*
X104974500Y-121400000D03*
X104974500Y-123800000D03*
X104275000Y-123800000D03*
X104974500Y-123200000D03*
X104974500Y-122600000D03*
X104275000Y-120200000D03*
X104275000Y-122600000D03*
X104275000Y-122000000D03*
X104974500Y-120200000D03*
X104974500Y-122000000D03*
X100926512Y-111640845D03*
X101280419Y-112983994D03*
X102199305Y-112913637D03*
X100856155Y-112559730D03*
X99653720Y-110368053D03*
X101704683Y-113408258D03*
X101350776Y-112065109D03*
X100502248Y-111216581D03*
X100007627Y-111711202D03*
X99159099Y-110862674D03*
X100431891Y-112135466D03*
X100077984Y-110792317D03*
X99583363Y-111286938D03*
X101775040Y-112489373D03*
X92161200Y-108273700D03*
X92161200Y-108973200D03*
X91561200Y-108973200D03*
X92761200Y-108273700D03*
X89761200Y-108973200D03*
X92761200Y-108973200D03*
X89161200Y-108973200D03*
X91561200Y-108273700D03*
X89161200Y-108273700D03*
X90961200Y-108973200D03*
X90961200Y-108273700D03*
X90361200Y-108273700D03*
X89761200Y-108273700D03*
X90361200Y-108973200D03*
X81922016Y-111224960D03*
X80719581Y-113416637D03*
X80295317Y-113840901D03*
X82416637Y-111719581D03*
X81497752Y-111649224D03*
X81992373Y-112143845D03*
X80649224Y-112497752D03*
X82840901Y-111295317D03*
X81568109Y-112568109D03*
X79800696Y-113346280D03*
X82346280Y-110800695D03*
X80224960Y-112922016D03*
X81073488Y-112073488D03*
X81143845Y-112992373D03*
D11*
X142500000Y-97000000D03*
X150500000Y-97000000D03*
D12*
X64990000Y-115300000D03*
X62390000Y-116600000D03*
X61090000Y-115300000D03*
X63690000Y-116600000D03*
X61090000Y-116600000D03*
X62390000Y-115300000D03*
X64990000Y-116600000D03*
X63690000Y-115300000D03*
X63950000Y-133014000D03*
X62650000Y-130414000D03*
X63950000Y-131714000D03*
X62650000Y-131714000D03*
X62650000Y-133014000D03*
X62650000Y-129114000D03*
X63950000Y-130414000D03*
X63950000Y-129114000D03*
X119014000Y-133014000D03*
X119014000Y-130414000D03*
X117714000Y-130414000D03*
X119014000Y-131714000D03*
X117714000Y-131714000D03*
X119014000Y-129114000D03*
X117714000Y-129114000D03*
X117714000Y-133014000D03*
X117454000Y-115428000D03*
X117454000Y-116728000D03*
X120054000Y-116728000D03*
X116154000Y-116728000D03*
X118754000Y-116728000D03*
X118754000Y-115428000D03*
X116154000Y-115428000D03*
X120054000Y-115428000D03*
D13*
X91000000Y-145000000D03*
X57250000Y-132000000D03*
X59690000Y-125222000D03*
X64000000Y-124000000D03*
X110998000Y-142240000D03*
X110998000Y-140208000D03*
X121000000Y-124000000D03*
X57250000Y-134000000D03*
X114766000Y-125270000D03*
X91000000Y-140250000D03*
X112200000Y-132000000D03*
X65750000Y-124000000D03*
X112200000Y-134000000D03*
X71750000Y-125750000D03*
X119000000Y-124000000D03*
X112226000Y-125270000D03*
X57150000Y-125222000D03*
X74000000Y-125750000D03*
X74200000Y-110600000D03*
X76200000Y-112600000D03*
X65750000Y-121000000D03*
X61500000Y-121000000D03*
X79500000Y-127750000D03*
X72000000Y-128750000D03*
X114500000Y-127750000D03*
X106000000Y-126800000D03*
X120800000Y-121100000D03*
X108250000Y-107250000D03*
X105600000Y-107200000D03*
X116550000Y-121100000D03*
X109750000Y-142250000D03*
X114766000Y-126540000D03*
X59690000Y-126492000D03*
X109750000Y-140250000D03*
X55372000Y-126492000D03*
X110448000Y-126540000D03*
X108500000Y-140250000D03*
X108500000Y-143500000D03*
D14*
X112226000Y-125270000D02*
X114766000Y-125270000D01*
X57150000Y-125222000D02*
X59690000Y-125222000D01*
X91000000Y-140250000D02*
X91000000Y-145000000D01*
X71750000Y-125750000D02*
X74000000Y-125750000D01*
D15*
X121000000Y-124000000D02*
X119000000Y-124000000D01*
D14*
X65750000Y-124000000D02*
X64000000Y-124000000D01*
D15*
X110998000Y-140208000D02*
X110998000Y-142240000D01*
D14*
X57250000Y-132000000D02*
X57250000Y-134000000D01*
X112200000Y-132000000D02*
X112200000Y-134000000D01*
D15*
X76200000Y-112600000D02*
X74200000Y-110600000D01*
X65750000Y-121000000D02*
X61500000Y-121000000D01*
X78500000Y-128750000D02*
X79500000Y-127750000D01*
X72000000Y-128750000D02*
X78500000Y-128750000D01*
X108950000Y-127750000D02*
X108000000Y-126800000D01*
X114500000Y-127750000D02*
X108950000Y-127750000D01*
X108000000Y-126800000D02*
X106000000Y-126800000D01*
X105600000Y-107200000D02*
X106184000Y-107200000D01*
X108200000Y-107200000D02*
X108250000Y-107250000D01*
X120800000Y-121100000D02*
X116550000Y-121100000D01*
X106184000Y-107200000D02*
X108200000Y-107200000D01*
X109750000Y-140250000D02*
X109750000Y-142250000D01*
X55372000Y-126492000D02*
X59690000Y-126492000D01*
X114766000Y-126540000D02*
X110448000Y-126540000D01*
X108500000Y-143500000D02*
X108500000Y-140250000D01*
M02*
