G04 #@! TF.GenerationSoftware,KiCad,Pcbnew,(5.99.0-11497-g0fb864d596)*
G04 #@! TF.CreationDate,2021-08-07T14:48:26-04:00*
G04 #@! TF.ProjectId,K40-LED_PCB,4b34302d-4c45-4445-9f50-43422e6b6963,rev?*
G04 #@! TF.SameCoordinates,Original*
G04 #@! TF.FileFunction,Copper,L1,Top*
G04 #@! TF.FilePolarity,Positive*
%FSLAX46Y46*%
G04 Gerber Fmt 4.6, Leading zero omitted, Abs format (unit mm)*
G04 Created by KiCad (PCBNEW (5.99.0-11497-g0fb864d596)) date 2021-08-07 14:48:26*
%MOMM*%
%LPD*%
G01*
G04 APERTURE LIST*
G04 Aperture macros list*
%AMRoundRect*
0 Rectangle with rounded corners*
0 $1 Rounding radius*
0 $2 $3 $4 $5 $6 $7 $8 $9 X,Y pos of 4 corners*
0 Add a 4 corners polygon primitive as box body*
4,1,4,$2,$3,$4,$5,$6,$7,$8,$9,$2,$3,0*
0 Add four circle primitives for the rounded corners*
1,1,$1+$1,$2,$3*
1,1,$1+$1,$4,$5*
1,1,$1+$1,$6,$7*
1,1,$1+$1,$8,$9*
0 Add four rect primitives between the rounded corners*
20,1,$1+$1,$2,$3,$4,$5,0*
20,1,$1+$1,$4,$5,$6,$7,0*
20,1,$1+$1,$6,$7,$8,$9,0*
20,1,$1+$1,$8,$9,$2,$3,0*%
%AMRotRect*
0 Rectangle, with rotation*
0 The origin of the aperture is its center*
0 $1 length*
0 $2 width*
0 $3 Rotation angle, in degrees counterclockwise*
0 Add horizontal line*
21,1,$1,$2,0,0,$3*%
G04 Aperture macros list end*
G04 #@! TA.AperFunction,ComponentPad*
%ADD10C,0.400000*%
G04 #@! TD*
G04 #@! TA.AperFunction,SMDPad,CuDef*
%ADD11R,1.100000X4.000000*%
G04 #@! TD*
G04 #@! TA.AperFunction,SMDPad,CuDef*
%ADD12R,1.750000X4.000000*%
G04 #@! TD*
G04 #@! TA.AperFunction,SMDPad,CuDef*
%ADD13RotRect,1.100000X4.000000X45.000000*%
G04 #@! TD*
G04 #@! TA.AperFunction,SMDPad,CuDef*
%ADD14RotRect,1.750000X4.000000X45.000000*%
G04 #@! TD*
G04 #@! TA.AperFunction,SMDPad,CuDef*
%ADD15R,4.000000X1.100000*%
G04 #@! TD*
G04 #@! TA.AperFunction,SMDPad,CuDef*
%ADD16R,4.000000X1.750000*%
G04 #@! TD*
G04 #@! TA.AperFunction,SMDPad,CuDef*
%ADD17RotRect,1.100000X4.000000X135.000000*%
G04 #@! TD*
G04 #@! TA.AperFunction,SMDPad,CuDef*
%ADD18RotRect,1.750000X4.000000X135.000000*%
G04 #@! TD*
G04 #@! TA.AperFunction,SMDPad,CuDef*
%ADD19RotRect,1.100000X4.000000X225.000000*%
G04 #@! TD*
G04 #@! TA.AperFunction,SMDPad,CuDef*
%ADD20RotRect,1.750000X4.000000X225.000000*%
G04 #@! TD*
G04 #@! TA.AperFunction,SMDPad,CuDef*
%ADD21RotRect,1.100000X4.000000X315.000000*%
G04 #@! TD*
G04 #@! TA.AperFunction,SMDPad,CuDef*
%ADD22RotRect,1.750000X4.000000X315.000000*%
G04 #@! TD*
G04 #@! TA.AperFunction,ComponentPad*
%ADD23C,3.500000*%
G04 #@! TD*
G04 #@! TA.AperFunction,SMDPad,CuDef*
%ADD24RoundRect,0.250000X-0.250000X-0.475000X0.250000X-0.475000X0.250000X0.475000X-0.250000X0.475000X0*%
G04 #@! TD*
G04 #@! TA.AperFunction,SMDPad,CuDef*
%ADD25RoundRect,0.250000X-0.475000X0.250000X-0.475000X-0.250000X0.475000X-0.250000X0.475000X0.250000X0*%
G04 #@! TD*
G04 #@! TA.AperFunction,SMDPad,CuDef*
%ADD26RoundRect,0.250000X0.262500X0.450000X-0.262500X0.450000X-0.262500X-0.450000X0.262500X-0.450000X0*%
G04 #@! TD*
G04 #@! TA.AperFunction,SMDPad,CuDef*
%ADD27RoundRect,0.250000X0.450000X-0.262500X0.450000X0.262500X-0.450000X0.262500X-0.450000X-0.262500X0*%
G04 #@! TD*
G04 #@! TA.AperFunction,SMDPad,CuDef*
%ADD28RoundRect,0.250000X-0.450000X0.262500X-0.450000X-0.262500X0.450000X-0.262500X0.450000X0.262500X0*%
G04 #@! TD*
G04 #@! TA.AperFunction,SMDPad,CuDef*
%ADD29R,2.030000X1.500000*%
G04 #@! TD*
G04 #@! TA.AperFunction,SMDPad,CuDef*
%ADD30R,0.600000X1.550000*%
G04 #@! TD*
G04 #@! TA.AperFunction,ComponentPad*
%ADD31C,0.300000*%
G04 #@! TD*
G04 #@! TA.AperFunction,SMDPad,CuDef*
%ADD32R,4.900000X2.950000*%
G04 #@! TD*
G04 #@! TA.AperFunction,SMDPad,CuDef*
%ADD33R,1.550000X0.600000*%
G04 #@! TD*
G04 #@! TA.AperFunction,SMDPad,CuDef*
%ADD34R,2.950000X4.900000*%
G04 #@! TD*
G04 #@! TA.AperFunction,SMDPad,CuDef*
%ADD35RoundRect,0.249999X0.450001X-0.262501X0.450001X0.262501X-0.450001X0.262501X-0.450001X-0.262501X0*%
G04 #@! TD*
G04 #@! TA.AperFunction,ViaPad*
%ADD36C,0.800000*%
G04 #@! TD*
G04 #@! TA.AperFunction,Conductor*
%ADD37C,0.250000*%
G04 #@! TD*
G04 #@! TA.AperFunction,Conductor*
%ADD38C,0.381000*%
G04 #@! TD*
G04 APERTURE END LIST*
D10*
X77225500Y-120155127D03*
X77925000Y-120755127D03*
X77925000Y-121355127D03*
X77225500Y-121955127D03*
X77925000Y-121955127D03*
X77925000Y-122555127D03*
X77925000Y-123155127D03*
X77225500Y-122555127D03*
D11*
X77575000Y-121955127D03*
D10*
X77225500Y-121355127D03*
X77225500Y-123755127D03*
X77925000Y-120155127D03*
X77225500Y-123155127D03*
X77925000Y-123755127D03*
X77225500Y-120755127D03*
D12*
X75200000Y-121955127D03*
X79950000Y-121955127D03*
D10*
X82840901Y-132704683D03*
X80224960Y-131077984D03*
X81073488Y-131926512D03*
X81992373Y-131856155D03*
X81497752Y-132350776D03*
X80719581Y-130583363D03*
X80649224Y-131502248D03*
X80295317Y-130159099D03*
X81922016Y-132775040D03*
X79800695Y-130653720D03*
X81143845Y-131007627D03*
D13*
X81320622Y-131679378D03*
D10*
X81568109Y-131431891D03*
X82416637Y-132280419D03*
X82346280Y-133199304D03*
D14*
X79641243Y-133358757D03*
X83000000Y-130000000D03*
D10*
X90928200Y-136020366D03*
X91528200Y-136020366D03*
X89728200Y-135320866D03*
X90328200Y-136020366D03*
X89128200Y-136020366D03*
D15*
X90928200Y-135670866D03*
D10*
X92128200Y-136020366D03*
X89128200Y-135320866D03*
X92728200Y-135320866D03*
X91528200Y-135320866D03*
X90928200Y-135320866D03*
X89728200Y-136020366D03*
X90328200Y-135320866D03*
X92728200Y-136020366D03*
X92128200Y-135320866D03*
D16*
X90928200Y-138045866D03*
X90928200Y-133295866D03*
D10*
X102199304Y-130653720D03*
X100007627Y-131856155D03*
X100431891Y-131431891D03*
X99159099Y-132704683D03*
X99653720Y-133199305D03*
X101350776Y-131502248D03*
X100856155Y-131007627D03*
X100502248Y-132350776D03*
X101775040Y-131077984D03*
X99583363Y-132280419D03*
X100926512Y-131926512D03*
X101280419Y-130583363D03*
X101704683Y-130159099D03*
D17*
X100679378Y-131679378D03*
D10*
X100077984Y-132775040D03*
D18*
X102358757Y-133358757D03*
X99000000Y-130000000D03*
D10*
X104275000Y-123200000D03*
X104974500Y-120800000D03*
X104275000Y-121400000D03*
X104275000Y-120800000D03*
X104974500Y-121400000D03*
X104974500Y-123800000D03*
X104275000Y-123800000D03*
X104974500Y-123200000D03*
X104974500Y-122600000D03*
X104275000Y-120200000D03*
X104275000Y-122600000D03*
D11*
X104625000Y-122000000D03*
D10*
X104275000Y-122000000D03*
X104974500Y-120200000D03*
X104974500Y-122000000D03*
D12*
X107000000Y-122000000D03*
X102250000Y-122000000D03*
D10*
X100926512Y-111640845D03*
D19*
X100679378Y-111887979D03*
D10*
X101280419Y-112983994D03*
X102199305Y-112913637D03*
X100856155Y-112559730D03*
X99653720Y-110368053D03*
X101704683Y-113408258D03*
X101350776Y-112065109D03*
X100502248Y-111216581D03*
X100007627Y-111711202D03*
X99159099Y-110862674D03*
X100431891Y-112135466D03*
X100077984Y-110792317D03*
X99583363Y-111286938D03*
X101775040Y-112489373D03*
D20*
X102358757Y-110208600D03*
X99000000Y-113567357D03*
D10*
X92161200Y-108273700D03*
X92161200Y-108973200D03*
X91561200Y-108973200D03*
D15*
X90961200Y-108623200D03*
D10*
X92761200Y-108273700D03*
X89761200Y-108973200D03*
X92761200Y-108973200D03*
X89161200Y-108973200D03*
X91561200Y-108273700D03*
X89161200Y-108273700D03*
X90961200Y-108973200D03*
X90961200Y-108273700D03*
X90361200Y-108273700D03*
X89761200Y-108273700D03*
X90361200Y-108973200D03*
D16*
X90961200Y-106248200D03*
X90961200Y-110998200D03*
D10*
X81922016Y-111224960D03*
X80719581Y-113416637D03*
X80295317Y-113840901D03*
X82416637Y-111719581D03*
X81497752Y-111649224D03*
D21*
X81320622Y-112320622D03*
D10*
X81992373Y-112143845D03*
X80649224Y-112497752D03*
X82840901Y-111295317D03*
X81568109Y-112568109D03*
X79800696Y-113346280D03*
X82346280Y-110800695D03*
X80224960Y-112922016D03*
X81073488Y-112073488D03*
X81143845Y-112992373D03*
D22*
X79641243Y-110641243D03*
X83000000Y-114000000D03*
D23*
X142500000Y-97000000D03*
X150500000Y-97000000D03*
D24*
X68800000Y-124000000D03*
X70700000Y-124000000D03*
X68800000Y-121000000D03*
X70700000Y-121000000D03*
X57300000Y-137250000D03*
X59200000Y-137250000D03*
X68800000Y-127250000D03*
X70700000Y-127250000D03*
X112300000Y-137250000D03*
X114200000Y-137250000D03*
X123800000Y-127250000D03*
X125700000Y-127250000D03*
X123750000Y-124000000D03*
X125650000Y-124000000D03*
X123750000Y-121000000D03*
X125650000Y-121000000D03*
D25*
X125750000Y-115300000D03*
X125750000Y-117200000D03*
D26*
X66820000Y-108250000D03*
X64995000Y-108250000D03*
D27*
X71000000Y-134912500D03*
X71000000Y-133087500D03*
X126200000Y-134712500D03*
X126200000Y-132887500D03*
D28*
X123000000Y-115337500D03*
X123000000Y-117162500D03*
D29*
X134000000Y-109000000D03*
X134000000Y-111540000D03*
X134000000Y-114080000D03*
X134000000Y-116620000D03*
X134000000Y-119160000D03*
X134000000Y-129320000D03*
X134000000Y-131860000D03*
X134000000Y-134400000D03*
X134000000Y-136940000D03*
X158370000Y-136940000D03*
X158370000Y-134400000D03*
X158370000Y-131860000D03*
X158370000Y-129320000D03*
X158370000Y-119160000D03*
X158370000Y-116620000D03*
X158370000Y-114080000D03*
X158370000Y-111540000D03*
X158370000Y-109000000D03*
D30*
X61135000Y-118650000D03*
X62405000Y-118650000D03*
X63675000Y-118650000D03*
X64945000Y-118650000D03*
X64945000Y-113250000D03*
X63675000Y-113250000D03*
X62405000Y-113250000D03*
X61135000Y-113250000D03*
D31*
X64990000Y-115300000D03*
X62390000Y-116600000D03*
X61090000Y-115300000D03*
X63690000Y-116600000D03*
X61090000Y-116600000D03*
X62390000Y-115300000D03*
D32*
X63040000Y-115950000D03*
D31*
X64990000Y-116600000D03*
X63690000Y-115300000D03*
D33*
X60600000Y-129159000D03*
X60600000Y-130429000D03*
X60600000Y-131699000D03*
X60600000Y-132969000D03*
X66000000Y-132969000D03*
X66000000Y-131699000D03*
X66000000Y-130429000D03*
X66000000Y-129159000D03*
D31*
X63950000Y-133014000D03*
X62650000Y-130414000D03*
X63950000Y-131714000D03*
X62650000Y-131714000D03*
D34*
X63300000Y-131064000D03*
D31*
X62650000Y-133014000D03*
X62650000Y-129114000D03*
X63950000Y-130414000D03*
X63950000Y-129114000D03*
D33*
X115664000Y-129159000D03*
X115664000Y-130429000D03*
X115664000Y-131699000D03*
X115664000Y-132969000D03*
X121064000Y-132969000D03*
X121064000Y-131699000D03*
X121064000Y-130429000D03*
X121064000Y-129159000D03*
D31*
X119014000Y-133014000D03*
X119014000Y-130414000D03*
X117714000Y-130414000D03*
X119014000Y-131714000D03*
X117714000Y-131714000D03*
D34*
X118364000Y-131064000D03*
D31*
X119014000Y-129114000D03*
X117714000Y-129114000D03*
X117714000Y-133014000D03*
D35*
X158400000Y-98812500D03*
X158400000Y-96987500D03*
D30*
X116199000Y-118778000D03*
X117469000Y-118778000D03*
X118739000Y-118778000D03*
X120009000Y-118778000D03*
X120009000Y-113378000D03*
X118739000Y-113378000D03*
X117469000Y-113378000D03*
X116199000Y-113378000D03*
D31*
X117454000Y-115428000D03*
X117454000Y-116728000D03*
X120054000Y-116728000D03*
D32*
X118104000Y-116078000D03*
D31*
X116154000Y-116728000D03*
X118754000Y-116728000D03*
X118754000Y-115428000D03*
X116154000Y-115428000D03*
X120054000Y-115428000D03*
D26*
X121827500Y-108242000D03*
X120002500Y-108242000D03*
D36*
X91000000Y-145000000D03*
X57250000Y-132000000D03*
X59690000Y-125222000D03*
X64000000Y-124000000D03*
X110998000Y-142240000D03*
X110998000Y-140208000D03*
X121000000Y-124000000D03*
X57250000Y-134000000D03*
X114766000Y-125270000D03*
X91000000Y-140250000D03*
X112200000Y-132000000D03*
X65750000Y-124000000D03*
X112200000Y-134000000D03*
X71750000Y-125750000D03*
X119000000Y-124000000D03*
X112226000Y-125270000D03*
X57150000Y-125222000D03*
X74000000Y-125750000D03*
X74200000Y-110600000D03*
X76200000Y-112600000D03*
X65750000Y-121000000D03*
X61500000Y-121000000D03*
X79500000Y-127750000D03*
X72000000Y-128750000D03*
X114500000Y-127750000D03*
X106000000Y-126800000D03*
X120800000Y-121100000D03*
X108250000Y-107250000D03*
X105600000Y-107200000D03*
X116550000Y-121100000D03*
X109750000Y-142250000D03*
X114766000Y-126540000D03*
X59690000Y-126492000D03*
X109750000Y-140250000D03*
X55372000Y-126492000D03*
X110448000Y-126540000D03*
X108500000Y-140250000D03*
X108500000Y-143500000D03*
D37*
X87000000Y-111000000D02*
X91000000Y-111000000D01*
X83900000Y-107900000D02*
X87000000Y-111000000D01*
X82382486Y-107900000D02*
X83900000Y-107900000D01*
X79641243Y-110641243D02*
X82382486Y-107900000D01*
X76800000Y-129150000D02*
X79900000Y-126050000D01*
X79541243Y-133408757D02*
X76800000Y-130667514D01*
X79900000Y-126050000D02*
X79900000Y-122050000D01*
X76800000Y-130667514D02*
X76800000Y-129150000D01*
X102258757Y-133508757D02*
X99517514Y-136250000D01*
X99517514Y-136250000D02*
X98000000Y-136250000D01*
X94900000Y-133150000D02*
X90900000Y-133150000D01*
X98000000Y-136250000D02*
X94900000Y-133150000D01*
X105300000Y-113082486D02*
X105300000Y-114600000D01*
X102200000Y-117700000D02*
X102200000Y-121700000D01*
X102558757Y-110341243D02*
X105300000Y-113082486D01*
X105300000Y-114600000D02*
X102200000Y-117700000D01*
D38*
X158400000Y-98812500D02*
X158400000Y-108970000D01*
D37*
X158400000Y-108970000D02*
X158370000Y-109000000D01*
D38*
X158370000Y-109000000D02*
X158370000Y-111540000D01*
X112050000Y-141200000D02*
X75600000Y-141200000D01*
X66000000Y-132969000D02*
X66000000Y-133800000D01*
X64945000Y-113250000D02*
X72356000Y-113250000D01*
X73000000Y-120500000D02*
X73000000Y-122600000D01*
X119996000Y-113378000D02*
X119996000Y-111361000D01*
X72356000Y-113250000D02*
X73000000Y-113894000D01*
X127500000Y-124000000D02*
X128000000Y-123500000D01*
X72500000Y-121000000D02*
X73000000Y-120500000D01*
X73000000Y-113894000D02*
X73000000Y-120500000D01*
X73400000Y-139000000D02*
X75600000Y-141200000D01*
X64925000Y-111145000D02*
X66820000Y-109250000D01*
X124912500Y-134712500D02*
X126200000Y-134712500D01*
X73000000Y-122600000D02*
X73000000Y-122834000D01*
X119996000Y-111361000D02*
X121827500Y-109529500D01*
X113800000Y-141200000D02*
X115600000Y-141200000D01*
X114200000Y-139300000D02*
X112300000Y-141200000D01*
X134000000Y-134400000D02*
X134000000Y-136940000D01*
X73000000Y-138600000D02*
X73400000Y-139000000D01*
X115600000Y-141200000D02*
X119860000Y-136940000D01*
X128000000Y-117750000D02*
X128000000Y-136200000D01*
X119945000Y-113250000D02*
X127356000Y-113250000D01*
X128000000Y-113894000D02*
X128000000Y-117750000D01*
X73000000Y-123500000D02*
X73000000Y-128000000D01*
X123169000Y-132969000D02*
X124912500Y-134712500D01*
D37*
X112300000Y-141200000D02*
X112050000Y-141200000D01*
D38*
X66000000Y-133800000D02*
X71200000Y-139000000D01*
X66000000Y-132969000D02*
X67969000Y-132969000D01*
X70700000Y-124000000D02*
X72500000Y-124000000D01*
X121827500Y-109529500D02*
X121827500Y-108242000D01*
X71200000Y-139000000D02*
X73400000Y-141200000D01*
X72500000Y-124000000D02*
X73000000Y-123500000D01*
X70700000Y-121000000D02*
X72500000Y-121000000D01*
X113600000Y-141200000D02*
X112050000Y-141200000D01*
X67969000Y-132969000D02*
X69912500Y-134912500D01*
X121064000Y-132969000D02*
X121064000Y-133936000D01*
X72500000Y-127500000D02*
X73000000Y-128000000D01*
X66820000Y-109250000D02*
X66820000Y-108250000D01*
X125650000Y-121000000D02*
X127450000Y-121000000D01*
X127450000Y-121000000D02*
X127950000Y-120500000D01*
X121064000Y-132969000D02*
X123169000Y-132969000D01*
X128000000Y-136200000D02*
X128740000Y-136940000D01*
X68000000Y-137250000D02*
X71950000Y-141200000D01*
X119860000Y-136940000D02*
X128740000Y-136940000D01*
X127450000Y-117200000D02*
X128000000Y-117750000D01*
X125700000Y-124000000D02*
X127500000Y-124000000D01*
X73000000Y-128000000D02*
X73000000Y-138600000D01*
X113800000Y-141200000D02*
X113600000Y-141200000D01*
X59200000Y-137250000D02*
X68000000Y-137250000D01*
X127356000Y-113250000D02*
X128000000Y-113894000D01*
X127500000Y-127250000D02*
X128000000Y-127750000D01*
X121064000Y-133936000D02*
X113800000Y-141200000D01*
X125750000Y-117200000D02*
X127450000Y-117200000D01*
X75600000Y-141200000D02*
X73400000Y-141200000D01*
X71950000Y-141200000D02*
X73400000Y-141200000D01*
X69912500Y-134912500D02*
X71000000Y-134912500D01*
X125700000Y-127250000D02*
X127500000Y-127250000D01*
X70700000Y-127500000D02*
X72500000Y-127500000D01*
X128740000Y-136940000D02*
X134000000Y-136940000D01*
X64925000Y-113250000D02*
X64925000Y-111145000D01*
X114200000Y-137250000D02*
X114200000Y-139300000D01*
X73000000Y-122834000D02*
X73000000Y-123500000D01*
X75148200Y-122238800D02*
X75148200Y-106951800D01*
X75148200Y-106951800D02*
X75900000Y-106200000D01*
X75900000Y-106200000D02*
X90900000Y-106200000D01*
X75951800Y-138151800D02*
X75200000Y-137400000D01*
X91238800Y-138151800D02*
X75951800Y-138151800D01*
X106200000Y-138100000D02*
X91200000Y-138100000D01*
X106951800Y-137348200D02*
X106200000Y-138100000D01*
X106951800Y-122061200D02*
X106951800Y-137348200D01*
D37*
X59718000Y-125250000D02*
X59690000Y-125222000D01*
D38*
X68800000Y-124000000D02*
X68800000Y-125300000D01*
X63675000Y-125075000D02*
X63500000Y-125250000D01*
X68800000Y-125300000D02*
X69250000Y-125750000D01*
X91500000Y-145500000D02*
X108000000Y-145500000D01*
D37*
X110998000Y-137668000D02*
X110998000Y-140208000D01*
X123750000Y-124000000D02*
X121000000Y-124000000D01*
D38*
X111718000Y-125778000D02*
X111718000Y-131620000D01*
X63675000Y-123325000D02*
X63675000Y-123675000D01*
X110490000Y-142748000D02*
X110490000Y-144780000D01*
X110998000Y-142240000D02*
X110490000Y-142748000D01*
X69250000Y-125750000D02*
X71750000Y-125750000D01*
X57300000Y-134050000D02*
X57300000Y-137250000D01*
X63500000Y-125250000D02*
X59718000Y-125250000D01*
D37*
X111416000Y-137250000D02*
X110998000Y-137668000D01*
X90928200Y-140178200D02*
X91000000Y-140250000D01*
D38*
X57551000Y-131699000D02*
X57250000Y-132000000D01*
X158370000Y-136940000D02*
X158370000Y-134400000D01*
X56642000Y-131392000D02*
X56642000Y-125730000D01*
X110490000Y-144780000D02*
X109770000Y-145500000D01*
X118480000Y-125270000D02*
X114766000Y-125270000D01*
X112200000Y-132000000D02*
X112098000Y-132000000D01*
X68800000Y-124000000D02*
X65750000Y-124000000D01*
X112226000Y-125270000D02*
X111718000Y-125778000D01*
X75200000Y-125300000D02*
X75200000Y-122400000D01*
X60600000Y-131699000D02*
X57551000Y-131699000D01*
X112501000Y-131699000D02*
X112200000Y-132000000D01*
X63675000Y-123675000D02*
X64000000Y-124000000D01*
X106248200Y-106248200D02*
X107000000Y-107000000D01*
X112098000Y-132000000D02*
X111718000Y-131620000D01*
D37*
X57250000Y-134000000D02*
X57300000Y-134050000D01*
D38*
X63675000Y-124325000D02*
X64000000Y-124000000D01*
X158370000Y-141380000D02*
X158370000Y-136940000D01*
X109770000Y-145500000D02*
X108000000Y-145500000D01*
X118750000Y-124250000D02*
X118750000Y-125000000D01*
D37*
X112226000Y-125270000D02*
X112020000Y-125270000D01*
D38*
X157510000Y-142240000D02*
X158370000Y-141380000D01*
X90928200Y-138045866D02*
X90928200Y-140178200D01*
X115550000Y-131699000D02*
X112501000Y-131699000D01*
X118750000Y-125000000D02*
X118480000Y-125270000D01*
X118739000Y-118778000D02*
X118739000Y-123739000D01*
D37*
X112300000Y-137250000D02*
X111416000Y-137250000D01*
D38*
X63675000Y-125075000D02*
X63675000Y-124325000D01*
X110998000Y-142240000D02*
X157510000Y-142240000D01*
X57250000Y-132000000D02*
X56642000Y-131392000D01*
X74000000Y-125750000D02*
X74750000Y-125750000D01*
X75200000Y-137400000D02*
X75200000Y-125300000D01*
X74750000Y-125750000D02*
X75200000Y-125300000D01*
D37*
X60549000Y-131750000D02*
X60600000Y-131699000D01*
D38*
X112250000Y-134050000D02*
X112250000Y-137250000D01*
X57150000Y-125222000D02*
X56642000Y-125730000D01*
D37*
X119000000Y-124000000D02*
X118750000Y-124250000D01*
D38*
X118739000Y-123739000D02*
X119000000Y-124000000D01*
X91000000Y-145000000D02*
X91500000Y-145500000D01*
X107000000Y-107000000D02*
X107000000Y-122000000D01*
X90961200Y-106248200D02*
X106248200Y-106248200D01*
X63675000Y-118650000D02*
X63675000Y-123325000D01*
D37*
X59976000Y-118650000D02*
X59690000Y-118364000D01*
X80000000Y-116400000D02*
X76200000Y-112600000D01*
X59690000Y-118364000D02*
X59690000Y-106934000D01*
X59690000Y-106934000D02*
X59944000Y-106680000D01*
X73406000Y-106680000D02*
X73748000Y-107022000D01*
X61135000Y-120635000D02*
X61135000Y-118650000D01*
X61135000Y-118650000D02*
X59976000Y-118650000D01*
X80600000Y-116400000D02*
X80200000Y-116400000D01*
X74200000Y-110600000D02*
X73748000Y-110148000D01*
X61500000Y-121000000D02*
X61135000Y-120635000D01*
X80200000Y-116400000D02*
X80000000Y-116400000D01*
X59944000Y-106680000D02*
X73406000Y-106680000D01*
X83000000Y-114000000D02*
X80600000Y-116400000D01*
X68800000Y-121000000D02*
X65750000Y-121000000D01*
X73748000Y-107022000D02*
X73748000Y-110148000D01*
X80250000Y-127250000D02*
X83000000Y-130000000D01*
X60674500Y-127924500D02*
X60827000Y-127772000D01*
X65674500Y-127674500D02*
X65577000Y-127772000D01*
X60600000Y-129159000D02*
X60600000Y-127999000D01*
X60600000Y-127999000D02*
X60674500Y-127924500D01*
X71895480Y-128645480D02*
X72000000Y-128750000D01*
X80000000Y-127250000D02*
X80250000Y-127250000D01*
X69000000Y-128645480D02*
X71895480Y-128645480D01*
X79500000Y-127750000D02*
X80000000Y-127250000D01*
X66099000Y-127250000D02*
X65674500Y-127674500D01*
X65577000Y-127772000D02*
X60827000Y-127772000D01*
X68800000Y-128445480D02*
X69000000Y-128645480D01*
X68800000Y-127250000D02*
X68800000Y-128445480D01*
X68800000Y-127250000D02*
X66099000Y-127250000D01*
X116000000Y-127750000D02*
X114500000Y-127750000D01*
X123800000Y-127250000D02*
X121000000Y-127250000D01*
X120500000Y-127750000D02*
X116000000Y-127750000D01*
X121000000Y-127250000D02*
X120500000Y-127750000D01*
X102200000Y-126800000D02*
X99000000Y-130000000D01*
X115664000Y-129159000D02*
X115664000Y-128086000D01*
X115664000Y-128086000D02*
X116000000Y-127750000D01*
X106000000Y-126800000D02*
X102200000Y-126800000D01*
X100407357Y-107200000D02*
X105600000Y-107200000D01*
X116159000Y-118750000D02*
X115000000Y-118750000D01*
X114714000Y-118464000D02*
X114714000Y-107464000D01*
X108250000Y-107250000D02*
X114500000Y-107250000D01*
X115000000Y-118750000D02*
X114714000Y-118464000D01*
X114500000Y-107250000D02*
X114714000Y-107464000D01*
X123850000Y-121100000D02*
X120800000Y-121100000D01*
X116185000Y-120735000D02*
X116185000Y-118750000D01*
X116211000Y-120111000D02*
X116211000Y-118698000D01*
X96703679Y-110903679D02*
X100407357Y-107200000D01*
X116550000Y-121100000D02*
X116185000Y-120735000D01*
X96703679Y-111271036D02*
X96703679Y-110903679D01*
X99000000Y-113567357D02*
X96703679Y-111271036D01*
X123000000Y-115337500D02*
X125712500Y-115337500D01*
X125712500Y-115337500D02*
X125750000Y-115300000D01*
D38*
X150500000Y-97000000D02*
X158387500Y-97000000D01*
D37*
X158387500Y-97000000D02*
X158400000Y-96987500D01*
X61420000Y-108250000D02*
X62620000Y-108250000D01*
X63820000Y-108250000D02*
X64995000Y-108250000D01*
X62385000Y-108485000D02*
X62620000Y-108250000D01*
X63655000Y-108415000D02*
X63820000Y-108250000D01*
X62620000Y-108250000D02*
X63820000Y-108250000D01*
X61115000Y-108555000D02*
X61420000Y-108250000D01*
X63655000Y-113250000D02*
X63655000Y-108415000D01*
X62385000Y-113250000D02*
X62385000Y-108485000D01*
X61115000Y-113250000D02*
X61115000Y-108555000D01*
X66000000Y-129095000D02*
X70695000Y-129095000D01*
X70695000Y-129095000D02*
X71000000Y-129400000D01*
X70765000Y-130365000D02*
X71000000Y-130600000D01*
X71000000Y-129400000D02*
X71000000Y-130600000D01*
X66000000Y-130365000D02*
X70765000Y-130365000D01*
X71000000Y-131800000D02*
X71000000Y-132975000D01*
X66000000Y-131635000D02*
X70835000Y-131635000D01*
X71000000Y-130600000D02*
X71000000Y-131800000D01*
X70835000Y-131635000D02*
X71000000Y-131800000D01*
X121200000Y-129095000D02*
X125895000Y-129095000D01*
X125895000Y-129095000D02*
X126200000Y-129400000D01*
X125965000Y-130365000D02*
X126200000Y-130600000D01*
X126200000Y-129400000D02*
X126200000Y-130600000D01*
X121200000Y-130365000D02*
X125965000Y-130365000D01*
X126200000Y-131800000D02*
X126200000Y-132975000D01*
X121200000Y-131635000D02*
X126035000Y-131635000D01*
X126200000Y-130600000D02*
X126200000Y-131800000D01*
X126035000Y-131635000D02*
X126200000Y-131800000D01*
X116210000Y-113242000D02*
X116210000Y-108547000D01*
X116210000Y-108547000D02*
X116515000Y-108242000D01*
X117480000Y-108477000D02*
X117715000Y-108242000D01*
X116515000Y-108242000D02*
X117715000Y-108242000D01*
X117480000Y-113242000D02*
X117480000Y-108477000D01*
X118915000Y-108242000D02*
X120090000Y-108242000D01*
X118750000Y-113242000D02*
X118750000Y-108407000D01*
X117715000Y-108242000D02*
X118915000Y-108242000D01*
X118750000Y-108407000D02*
X118915000Y-108242000D01*
X109500000Y-142500000D02*
X71500000Y-142500000D01*
X110062000Y-133000000D02*
X109781000Y-133281000D01*
X121500000Y-117500000D02*
X121837500Y-117162500D01*
X119846000Y-126540000D02*
X120021000Y-126365000D01*
X54750000Y-132750000D02*
X54750000Y-127000000D01*
X109781000Y-132781000D02*
X109781000Y-127207000D01*
X114766000Y-126540000D02*
X119846000Y-126540000D01*
X54969000Y-132969000D02*
X54750000Y-132750000D01*
X60600000Y-132969000D02*
X55219000Y-132969000D01*
X55219000Y-132969000D02*
X54969000Y-132969000D01*
X121500000Y-118250000D02*
X121500000Y-117500000D01*
X121837500Y-117162500D02*
X123000000Y-117162500D01*
X64770000Y-126492000D02*
X64945000Y-126317000D01*
X109781000Y-138531000D02*
X109781000Y-140219000D01*
X55000000Y-138750000D02*
X54750000Y-138500000D01*
X109781000Y-140219000D02*
X109750000Y-140250000D01*
X120009000Y-118778000D02*
X120972000Y-118778000D01*
X109750000Y-142250000D02*
X109500000Y-142500000D01*
X67750000Y-138750000D02*
X55000000Y-138750000D01*
X55258000Y-126492000D02*
X55372000Y-126492000D01*
X110000000Y-133000000D02*
X109781000Y-132781000D01*
X64945000Y-126317000D02*
X64945000Y-118650000D01*
X71500000Y-142500000D02*
X67750000Y-138750000D01*
X59690000Y-126492000D02*
X64770000Y-126492000D01*
X120972000Y-118778000D02*
X121500000Y-118250000D01*
X54750000Y-127000000D02*
X55258000Y-126492000D01*
X115631000Y-133000000D02*
X110000000Y-133000000D01*
X109781000Y-133281000D02*
X109781000Y-138531000D01*
X54750000Y-133250000D02*
X55031000Y-132969000D01*
X120021000Y-126365000D02*
X120021000Y-118698000D01*
X54750000Y-138500000D02*
X54750000Y-133250000D01*
X109781000Y-127207000D02*
X110448000Y-126540000D01*
X55031000Y-132969000D02*
X55219000Y-132969000D01*
D38*
X134000000Y-109000000D02*
X134000000Y-97500000D01*
X134000000Y-97500000D02*
X134500000Y-97000000D01*
X134500000Y-97000000D02*
X142500000Y-97000000D01*
X134000000Y-111540000D02*
X134000000Y-109000000D01*
D37*
X58420000Y-124206000D02*
X58420000Y-130302000D01*
X58547000Y-130429000D02*
X60600000Y-130429000D01*
X108500000Y-125000000D02*
X108500000Y-140250000D01*
X113750000Y-124000000D02*
X109500000Y-124000000D01*
X113750000Y-124000000D02*
X113496000Y-124254000D01*
X58798000Y-123952000D02*
X58674000Y-123952000D01*
X71250000Y-144000000D02*
X67500000Y-140250000D01*
X58798000Y-123952000D02*
X54548000Y-123952000D01*
X62405000Y-123777000D02*
X62230000Y-123952000D01*
X117481000Y-123825000D02*
X117481000Y-118698000D01*
X108000000Y-144000000D02*
X71250000Y-144000000D01*
X62405000Y-123777000D02*
X62405000Y-118650000D01*
X54000000Y-139750000D02*
X54500000Y-140250000D01*
X62230000Y-123952000D02*
X58798000Y-123952000D01*
X109500000Y-124000000D02*
X109250000Y-124250000D01*
X58420000Y-130302000D02*
X58547000Y-130429000D01*
X109000000Y-124500000D02*
X108500000Y-125000000D01*
X54500000Y-140250000D02*
X67500000Y-140250000D01*
X108500000Y-143500000D02*
X108000000Y-144000000D01*
X117481000Y-123825000D02*
X117306000Y-124000000D01*
X109250000Y-124250000D02*
X109000000Y-124500000D01*
X54000000Y-124500000D02*
X54000000Y-138750000D01*
X54000000Y-138750000D02*
X54000000Y-139750000D01*
X113496000Y-130350000D02*
X113623000Y-130477000D01*
X113496000Y-124254000D02*
X113496000Y-130350000D01*
X54548000Y-123952000D02*
X54000000Y-124500000D01*
X117306000Y-124000000D02*
X113750000Y-124000000D01*
X113623000Y-130477000D02*
X115676000Y-130477000D01*
X58674000Y-123952000D02*
X58420000Y-124206000D01*
M02*
