G04 #@! TF.GenerationSoftware,KiCad,Pcbnew,(5.1.8)-1*
G04 #@! TF.CreationDate,2021-07-03T11:30:39-04:00*
G04 #@! TF.ProjectId,K40-LED_PCB,4b34302d-4c45-4445-9f50-43422e6b6963,rev?*
G04 #@! TF.SameCoordinates,Original*
G04 #@! TF.FileFunction,Legend,Top*
G04 #@! TF.FilePolarity,Positive*
%FSLAX46Y46*%
G04 Gerber Fmt 4.6, Leading zero omitted, Abs format (unit mm)*
G04 Created by KiCad (PCBNEW (5.1.8)-1) date 2021-07-03 11:30:39*
%MOMM*%
%LPD*%
G01*
G04 APERTURE LIST*
%ADD10C,0.200000*%
%ADD11C,0.120000*%
%ADD12C,0.127000*%
%ADD13C,0.150000*%
%ADD14R,5.000000X5.000000*%
%ADD15C,0.100000*%
%ADD16R,0.810000X0.930000*%
%ADD17R,0.930000X0.810000*%
G04 APERTURE END LIST*
D10*
X90250000Y-82367380D02*
X90250000Y-81367380D01*
X90821428Y-82367380D01*
X90821428Y-81367380D01*
X91630952Y-81843571D02*
X91773809Y-81891190D01*
X91821428Y-81938809D01*
X91869047Y-82034047D01*
X91869047Y-82176904D01*
X91821428Y-82272142D01*
X91773809Y-82319761D01*
X91678571Y-82367380D01*
X91297619Y-82367380D01*
X91297619Y-81367380D01*
X91630952Y-81367380D01*
X91726190Y-81415000D01*
X91773809Y-81462619D01*
X91821428Y-81557857D01*
X91821428Y-81653095D01*
X91773809Y-81748333D01*
X91726190Y-81795952D01*
X91630952Y-81843571D01*
X91297619Y-81843571D01*
X92345238Y-81367380D02*
X92250000Y-81557857D01*
X92726190Y-82319761D02*
X92821428Y-82367380D01*
X93011904Y-82367380D01*
X93107142Y-82319761D01*
X93154761Y-82224523D01*
X93154761Y-82176904D01*
X93107142Y-82081666D01*
X93011904Y-82034047D01*
X92869047Y-82034047D01*
X92773809Y-81986428D01*
X92726190Y-81891190D01*
X92726190Y-81843571D01*
X92773809Y-81748333D01*
X92869047Y-81700714D01*
X93011904Y-81700714D01*
X93107142Y-81748333D01*
X94345238Y-82367380D02*
X94345238Y-81367380D01*
X94916666Y-82367380D02*
X94488095Y-81795952D01*
X94916666Y-81367380D02*
X94345238Y-81938809D01*
X95773809Y-81700714D02*
X95773809Y-82367380D01*
X95535714Y-81319761D02*
X95297619Y-82034047D01*
X95916666Y-82034047D01*
X96488095Y-81367380D02*
X96583333Y-81367380D01*
X96678571Y-81415000D01*
X96726190Y-81462619D01*
X96773809Y-81557857D01*
X96821428Y-81748333D01*
X96821428Y-81986428D01*
X96773809Y-82176904D01*
X96726190Y-82272142D01*
X96678571Y-82319761D01*
X96583333Y-82367380D01*
X96488095Y-82367380D01*
X96392857Y-82319761D01*
X96345238Y-82272142D01*
X96297619Y-82176904D01*
X96250000Y-81986428D01*
X96250000Y-81748333D01*
X96297619Y-81557857D01*
X96345238Y-81462619D01*
X96392857Y-81415000D01*
X96488095Y-81367380D01*
X98488095Y-82367380D02*
X98011904Y-82367380D01*
X98011904Y-81367380D01*
X98821428Y-81843571D02*
X99154761Y-81843571D01*
X99297619Y-82367380D02*
X98821428Y-82367380D01*
X98821428Y-81367380D01*
X99297619Y-81367380D01*
X99726190Y-82367380D02*
X99726190Y-81367380D01*
X99964285Y-81367380D01*
X100107142Y-81415000D01*
X100202380Y-81510238D01*
X100250000Y-81605476D01*
X100297619Y-81795952D01*
X100297619Y-81938809D01*
X100250000Y-82129285D01*
X100202380Y-82224523D01*
X100107142Y-82319761D01*
X99964285Y-82367380D01*
X99726190Y-82367380D01*
D11*
X91585000Y-69627064D02*
X91585000Y-69172936D01*
X90115000Y-69627064D02*
X90115000Y-69172936D01*
X92743000Y-65595000D02*
X102743000Y-65595000D01*
X92743000Y-80595000D02*
X92743000Y-65595000D01*
X102743000Y-80595000D02*
X92743000Y-80595000D01*
X102743000Y-65595000D02*
X102743000Y-80595000D01*
D10*
X83367949Y-77000000D02*
G75*
G03*
X83367949Y-77000000I-100000J0D01*
G01*
D12*
X84848612Y-78432211D02*
X84701388Y-78347211D01*
X85151388Y-77567789D02*
X85298612Y-77652789D01*
D10*
X70832051Y-77000000D02*
G75*
G03*
X70832051Y-77000000I-100000J0D01*
G01*
D12*
X68701388Y-77652789D02*
X68848612Y-77567789D01*
X69298612Y-78347211D02*
X69151388Y-78432211D01*
X85915000Y-72550000D02*
X86085000Y-72550000D01*
X86085000Y-73450000D02*
X85915000Y-73450000D01*
D10*
X84100000Y-73000000D02*
G75*
G03*
X84100000Y-73000000I-100000J0D01*
G01*
D12*
X82347211Y-80701388D02*
X82432211Y-80848612D01*
X81652789Y-81298612D02*
X81567789Y-81151388D01*
D10*
X81100000Y-79267949D02*
G75*
G03*
X81100000Y-79267949I-100000J0D01*
G01*
D12*
X68085000Y-73450000D02*
X67915000Y-73450000D01*
X67915000Y-72550000D02*
X68085000Y-72550000D01*
D10*
X70100000Y-73000000D02*
G75*
G03*
X70100000Y-73000000I-100000J0D01*
G01*
D12*
X84701388Y-67652789D02*
X84848612Y-67567789D01*
X85298612Y-68347211D02*
X85151388Y-68432211D01*
D10*
X83367949Y-69000000D02*
G75*
G03*
X83367949Y-69000000I-100000J0D01*
G01*
D12*
X77450000Y-81915000D02*
X77450000Y-82085000D01*
X76550000Y-82085000D02*
X76550000Y-81915000D01*
D10*
X77100000Y-80000000D02*
G75*
G03*
X77100000Y-80000000I-100000J0D01*
G01*
D12*
X68848612Y-68432211D02*
X68701388Y-68347211D01*
X69151388Y-67567789D02*
X69298612Y-67652789D01*
D10*
X70832051Y-69000000D02*
G75*
G03*
X70832051Y-69000000I-100000J0D01*
G01*
D12*
X81567789Y-64848612D02*
X81652789Y-64701388D01*
X82432211Y-65151388D02*
X82347211Y-65298612D01*
D10*
X81100000Y-66732051D02*
G75*
G03*
X81100000Y-66732051I-100000J0D01*
G01*
D12*
X72432211Y-81151388D02*
X72347211Y-81298612D01*
X71567789Y-80848612D02*
X71652789Y-80701388D01*
D10*
X73100000Y-79267949D02*
G75*
G03*
X73100000Y-79267949I-100000J0D01*
G01*
X73100000Y-66732051D02*
G75*
G03*
X73100000Y-66732051I-100000J0D01*
G01*
D12*
X72347211Y-64701388D02*
X72432211Y-64848612D01*
X71652789Y-65298612D02*
X71567789Y-65151388D01*
D10*
X77100000Y-66000000D02*
G75*
G03*
X77100000Y-66000000I-100000J0D01*
G01*
D12*
X77450000Y-63915000D02*
X77450000Y-64085000D01*
X76550000Y-64085000D02*
X76550000Y-63915000D01*
D13*
X89652380Y-69566666D02*
X89176190Y-69900000D01*
X89652380Y-70138095D02*
X88652380Y-70138095D01*
X88652380Y-69757142D01*
X88700000Y-69661904D01*
X88747619Y-69614285D01*
X88842857Y-69566666D01*
X88985714Y-69566666D01*
X89080952Y-69614285D01*
X89128571Y-69661904D01*
X89176190Y-69757142D01*
X89176190Y-70138095D01*
X89652380Y-68614285D02*
X89652380Y-69185714D01*
X89652380Y-68900000D02*
X88652380Y-68900000D01*
X88795238Y-68995238D01*
X88890476Y-69090476D01*
X88938095Y-69185714D01*
X106100714Y-73475976D02*
X107100714Y-73475976D01*
X106148333Y-73475976D02*
X106100714Y-73380738D01*
X106100714Y-73190261D01*
X106148333Y-73095023D01*
X106195952Y-73047404D01*
X106291190Y-72999785D01*
X106576904Y-72999785D01*
X106672142Y-73047404D01*
X106719761Y-73095023D01*
X106767380Y-73190261D01*
X106767380Y-73380738D01*
X106719761Y-73475976D01*
X106767380Y-72047404D02*
X106767380Y-72618833D01*
X106767380Y-72333119D02*
X105767380Y-72333119D01*
X105910238Y-72428357D01*
X106005476Y-72523595D01*
X106053095Y-72618833D01*
X85498963Y-76994839D02*
X86000404Y-76126318D01*
X86207195Y-76245709D01*
X86307391Y-76358701D01*
X86342351Y-76489174D01*
X86335953Y-76595768D01*
X86281799Y-76785079D01*
X86210164Y-76909154D01*
X86073294Y-77050708D01*
X85984179Y-77109546D01*
X85853707Y-77144506D01*
X85705754Y-77114230D01*
X85498963Y-76994839D01*
X86822424Y-77758940D02*
X86326126Y-77472402D01*
X86574275Y-77615671D02*
X87075716Y-76747150D01*
X86921365Y-76823468D01*
X86790893Y-76858428D01*
X86684298Y-76852030D01*
X87606974Y-77164160D02*
X87672210Y-77146680D01*
X87778805Y-77153078D01*
X87985596Y-77272469D01*
X88044434Y-77361583D01*
X88061914Y-77426820D01*
X88055516Y-77533414D01*
X88007759Y-77616130D01*
X87894767Y-77716327D01*
X87111931Y-77926087D01*
X87649587Y-78236503D01*
X67965431Y-80938285D02*
X67463990Y-80069763D01*
X67670781Y-79950373D01*
X67818733Y-79920096D01*
X67949206Y-79955056D01*
X68038320Y-80013895D01*
X68175191Y-80155449D01*
X68246825Y-80279524D01*
X68300980Y-80468834D01*
X68307378Y-80575429D01*
X68272418Y-80705901D01*
X68172222Y-80818894D01*
X67965431Y-80938285D01*
X69288892Y-80174184D02*
X68792594Y-80460722D01*
X69040743Y-80317453D02*
X68539302Y-79448932D01*
X68528220Y-79620762D01*
X68493260Y-79751235D01*
X68434422Y-79840349D01*
X70116055Y-79696621D02*
X69619757Y-79983159D01*
X69867906Y-79839890D02*
X69366465Y-78971369D01*
X69355383Y-79143200D01*
X69320423Y-79273672D01*
X69261585Y-79362787D01*
X85929534Y-71880023D02*
X85929534Y-70877141D01*
X86168316Y-70877141D01*
X86311585Y-70924898D01*
X86407097Y-71020410D01*
X86454853Y-71115923D01*
X86502610Y-71306948D01*
X86502610Y-71450217D01*
X86454853Y-71641242D01*
X86407097Y-71736754D01*
X86311585Y-71832267D01*
X86168316Y-71880023D01*
X85929534Y-71880023D01*
X87457735Y-71880023D02*
X86884660Y-71880023D01*
X87171198Y-71880023D02*
X87171198Y-70877141D01*
X87075685Y-71020410D01*
X86980173Y-71115923D01*
X86884660Y-71163679D01*
X88078567Y-70877141D02*
X88174080Y-70877141D01*
X88269592Y-70924898D01*
X88317349Y-70972654D01*
X88365105Y-71068166D01*
X88412861Y-71259192D01*
X88412861Y-71497973D01*
X88365105Y-71688998D01*
X88317349Y-71784511D01*
X88269592Y-71832267D01*
X88174080Y-71880023D01*
X88078567Y-71880023D01*
X87983055Y-71832267D01*
X87935298Y-71784511D01*
X87887542Y-71688998D01*
X87839786Y-71497973D01*
X87839786Y-71259192D01*
X87887542Y-71068166D01*
X87935298Y-70972654D01*
X87983055Y-70924898D01*
X88078567Y-70877141D01*
X83173476Y-80792568D02*
X84041997Y-80291127D01*
X84161388Y-80497918D01*
X84191664Y-80645871D01*
X84156704Y-80776343D01*
X84097866Y-80865458D01*
X83956311Y-81002329D01*
X83832237Y-81073963D01*
X83642926Y-81128117D01*
X83536332Y-81134516D01*
X83405859Y-81099556D01*
X83292867Y-80999359D01*
X83173476Y-80792568D01*
X83698795Y-81702448D02*
X83794308Y-81867881D01*
X83883422Y-81926719D01*
X83948658Y-81944199D01*
X84120489Y-81955281D01*
X84309800Y-81901126D01*
X84640665Y-81710101D01*
X84699503Y-81620987D01*
X84716983Y-81555750D01*
X84710585Y-81449156D01*
X84615073Y-81283723D01*
X84525958Y-81224885D01*
X84460722Y-81207405D01*
X84354127Y-81213803D01*
X84147337Y-81333194D01*
X84088498Y-81422308D01*
X84071018Y-81487545D01*
X84077416Y-81594139D01*
X84172929Y-81759572D01*
X84262043Y-81818410D01*
X84327280Y-81835890D01*
X84433874Y-81829492D01*
X66112457Y-75027345D02*
X66112457Y-74024463D01*
X66351239Y-74024463D01*
X66494507Y-74072220D01*
X66590020Y-74167732D01*
X66637776Y-74263245D01*
X66685533Y-74454270D01*
X66685533Y-74597539D01*
X66637776Y-74788564D01*
X66590020Y-74884076D01*
X66494507Y-74979589D01*
X66351239Y-75027345D01*
X66112457Y-75027345D01*
X67258608Y-74454270D02*
X67163095Y-74406514D01*
X67115339Y-74358757D01*
X67067583Y-74263245D01*
X67067583Y-74215488D01*
X67115339Y-74119976D01*
X67163095Y-74072220D01*
X67258608Y-74024463D01*
X67449633Y-74024463D01*
X67545146Y-74072220D01*
X67592902Y-74119976D01*
X67640658Y-74215488D01*
X67640658Y-74263245D01*
X67592902Y-74358757D01*
X67545146Y-74406514D01*
X67449633Y-74454270D01*
X67258608Y-74454270D01*
X67163095Y-74502026D01*
X67115339Y-74549782D01*
X67067583Y-74645295D01*
X67067583Y-74836320D01*
X67115339Y-74931833D01*
X67163095Y-74979589D01*
X67258608Y-75027345D01*
X67449633Y-75027345D01*
X67545146Y-74979589D01*
X67592902Y-74931833D01*
X67640658Y-74836320D01*
X67640658Y-74645295D01*
X67592902Y-74549782D01*
X67545146Y-74502026D01*
X67449633Y-74454270D01*
X84792568Y-66826523D02*
X84291127Y-65958002D01*
X84497918Y-65838611D01*
X84645871Y-65808335D01*
X84776343Y-65843295D01*
X84865458Y-65902133D01*
X85002329Y-66043688D01*
X85073963Y-66167762D01*
X85128117Y-66357073D01*
X85134516Y-66463667D01*
X85099556Y-66594140D01*
X84999359Y-66707132D01*
X84792568Y-66826523D01*
X85076932Y-65504317D02*
X85655947Y-65170023D01*
X85785164Y-66253448D01*
X79027345Y-83887542D02*
X78024463Y-83887542D01*
X78024463Y-83648761D01*
X78072220Y-83505492D01*
X78167732Y-83409979D01*
X78263245Y-83362223D01*
X78454270Y-83314467D01*
X78597539Y-83314467D01*
X78788564Y-83362223D01*
X78884076Y-83409979D01*
X78979589Y-83505492D01*
X79027345Y-83648761D01*
X79027345Y-83887542D01*
X78024463Y-82454853D02*
X78024463Y-82645879D01*
X78072220Y-82741391D01*
X78119976Y-82789147D01*
X78263245Y-82884660D01*
X78454270Y-82932416D01*
X78836320Y-82932416D01*
X78931833Y-82884660D01*
X78979589Y-82836904D01*
X79027345Y-82741391D01*
X79027345Y-82550366D01*
X78979589Y-82454853D01*
X78931833Y-82407097D01*
X78836320Y-82359341D01*
X78597539Y-82359341D01*
X78502026Y-82407097D01*
X78454270Y-82454853D01*
X78406514Y-82550366D01*
X78406514Y-82741391D01*
X78454270Y-82836904D01*
X78502026Y-82884660D01*
X78597539Y-82932416D01*
X66351667Y-68811961D02*
X66853108Y-67943439D01*
X67059898Y-68062830D01*
X67160095Y-68175823D01*
X67195055Y-68306295D01*
X67188657Y-68412890D01*
X67134502Y-68602201D01*
X67062868Y-68726275D01*
X66925997Y-68867830D01*
X66836883Y-68926668D01*
X66706410Y-68961628D01*
X66558457Y-68931351D01*
X66351667Y-68811961D01*
X68135211Y-68683662D02*
X67721629Y-68444880D01*
X67441489Y-68834584D01*
X67506726Y-68817104D01*
X67613320Y-68823502D01*
X67820111Y-68942893D01*
X67878949Y-69032007D01*
X67896429Y-69097243D01*
X67890031Y-69203838D01*
X67770640Y-69410629D01*
X67681526Y-69469467D01*
X67616290Y-69486947D01*
X67509695Y-69480549D01*
X67302904Y-69361158D01*
X67244066Y-69272044D01*
X67226586Y-69206807D01*
X81233621Y-64087454D02*
X80365099Y-63586013D01*
X80484490Y-63379223D01*
X80597483Y-63279026D01*
X80727955Y-63244066D01*
X80834550Y-63250464D01*
X81023861Y-63304619D01*
X81147935Y-63376253D01*
X81289490Y-63513124D01*
X81348328Y-63602238D01*
X81383288Y-63732711D01*
X81353011Y-63880664D01*
X81233621Y-64087454D01*
X81370951Y-62512416D02*
X81949965Y-62846710D01*
X80920695Y-62528181D02*
X81421677Y-63093144D01*
X81732092Y-62555488D01*
X72811961Y-83648332D02*
X71943439Y-83146891D01*
X72062830Y-82940101D01*
X72175823Y-82839904D01*
X72306295Y-82804944D01*
X72412890Y-82811342D01*
X72602201Y-82865497D01*
X72726275Y-82937131D01*
X72867830Y-83074002D01*
X72926668Y-83163116D01*
X72961628Y-83293589D01*
X72931351Y-83441542D01*
X72811961Y-83648332D01*
X72397124Y-82361086D02*
X72707540Y-81823430D01*
X72871258Y-82303963D01*
X72942893Y-82179888D01*
X73032007Y-82121050D01*
X73097243Y-82103570D01*
X73203838Y-82109968D01*
X73410629Y-82229359D01*
X73469467Y-82318473D01*
X73486947Y-82383709D01*
X73480549Y-82490304D01*
X73337280Y-82738453D01*
X73248165Y-82797291D01*
X73182929Y-82814771D01*
X69300496Y-64379012D02*
X70169017Y-63877571D01*
X70288408Y-64084362D01*
X70318684Y-64232315D01*
X70283724Y-64362787D01*
X70224886Y-64451902D01*
X70083331Y-64588773D01*
X69959257Y-64660407D01*
X69769946Y-64714561D01*
X69663352Y-64720960D01*
X69532879Y-64686000D01*
X69419887Y-64585803D01*
X69300496Y-64379012D01*
X70563864Y-64752491D02*
X70629100Y-64769971D01*
X70718214Y-64828809D01*
X70837605Y-65035600D01*
X70844003Y-65142194D01*
X70826523Y-65207431D01*
X70767685Y-65296545D01*
X70684969Y-65344301D01*
X70537016Y-65374578D01*
X69754181Y-65164817D01*
X70064596Y-65702473D01*
X75880023Y-63592902D02*
X74877141Y-63592902D01*
X74877141Y-63354121D01*
X74924898Y-63210852D01*
X75020410Y-63115339D01*
X75115923Y-63067583D01*
X75306948Y-63019827D01*
X75450217Y-63019827D01*
X75641242Y-63067583D01*
X75736754Y-63115339D01*
X75832267Y-63210852D01*
X75880023Y-63354121D01*
X75880023Y-63592902D01*
X75880023Y-62064701D02*
X75880023Y-62637776D01*
X75880023Y-62351239D02*
X74877141Y-62351239D01*
X75020410Y-62446751D01*
X75115923Y-62542264D01*
X75163679Y-62637776D01*
%LPC*%
G36*
G01*
X91300001Y-69000000D02*
X90399999Y-69000000D01*
G75*
G02*
X90150000Y-68750001I0J249999D01*
G01*
X90150000Y-68224999D01*
G75*
G02*
X90399999Y-67975000I249999J0D01*
G01*
X91300001Y-67975000D01*
G75*
G02*
X91550000Y-68224999I0J-249999D01*
G01*
X91550000Y-68750001D01*
G75*
G02*
X91300001Y-69000000I-249999J0D01*
G01*
G37*
G36*
G01*
X91300001Y-70825000D02*
X90399999Y-70825000D01*
G75*
G02*
X90150000Y-70575001I0J249999D01*
G01*
X90150000Y-70049999D01*
G75*
G02*
X90399999Y-69800000I249999J0D01*
G01*
X91300001Y-69800000D01*
G75*
G02*
X91550000Y-70049999I0J-249999D01*
G01*
X91550000Y-70575001D01*
G75*
G02*
X91300001Y-70825000I-249999J0D01*
G01*
G37*
D14*
X97743000Y-76595000D03*
X97743000Y-69595000D03*
D15*
G36*
X85118241Y-78605202D02*
G01*
X85583241Y-77799798D01*
X86284721Y-78204798D01*
X85819721Y-79010202D01*
X85118241Y-78605202D01*
G37*
G36*
X83715279Y-77795202D02*
G01*
X84180279Y-76989798D01*
X84881759Y-77394798D01*
X84416759Y-78200202D01*
X83715279Y-77795202D01*
G37*
G36*
X68416759Y-77799798D02*
G01*
X68881759Y-78605202D01*
X68180279Y-79010202D01*
X67715279Y-78204798D01*
X68416759Y-77799798D01*
G37*
G36*
X69819721Y-76989798D02*
G01*
X70284721Y-77795202D01*
X69583241Y-78200202D01*
X69118241Y-77394798D01*
X69819721Y-76989798D01*
G37*
D16*
X85190000Y-73000000D03*
X86810000Y-73000000D03*
D15*
G36*
X80989798Y-80180279D02*
G01*
X81795202Y-79715279D01*
X82200202Y-80416759D01*
X81394798Y-80881759D01*
X80989798Y-80180279D01*
G37*
G36*
X81799798Y-81583241D02*
G01*
X82605202Y-81118241D01*
X83010202Y-81819721D01*
X82204798Y-82284721D01*
X81799798Y-81583241D01*
G37*
D16*
X68810000Y-73000000D03*
X67190000Y-73000000D03*
D15*
G36*
X84180279Y-69010202D02*
G01*
X83715279Y-68204798D01*
X84416759Y-67799798D01*
X84881759Y-68605202D01*
X84180279Y-69010202D01*
G37*
G36*
X85583241Y-68200202D02*
G01*
X85118241Y-67394798D01*
X85819721Y-66989798D01*
X86284721Y-67795202D01*
X85583241Y-68200202D01*
G37*
D17*
X77000000Y-81190000D03*
X77000000Y-82810000D03*
D15*
G36*
X70284721Y-68204798D02*
G01*
X69819721Y-69010202D01*
X69118241Y-68605202D01*
X69583241Y-67799798D01*
X70284721Y-68204798D01*
G37*
G36*
X68881759Y-67394798D02*
G01*
X68416759Y-68200202D01*
X67715279Y-67795202D01*
X68180279Y-66989798D01*
X68881759Y-67394798D01*
G37*
G36*
X81795202Y-66284721D02*
G01*
X80989798Y-65819721D01*
X81394798Y-65118241D01*
X82200202Y-65583241D01*
X81795202Y-66284721D01*
G37*
G36*
X82605202Y-64881759D02*
G01*
X81799798Y-64416759D01*
X82204798Y-63715279D01*
X83010202Y-64180279D01*
X82605202Y-64881759D01*
G37*
G36*
X72204798Y-79715279D02*
G01*
X73010202Y-80180279D01*
X72605202Y-80881759D01*
X71799798Y-80416759D01*
X72204798Y-79715279D01*
G37*
G36*
X71394798Y-81118241D02*
G01*
X72200202Y-81583241D01*
X71795202Y-82284721D01*
X70989798Y-81819721D01*
X71394798Y-81118241D01*
G37*
G36*
X72200202Y-64416759D02*
G01*
X71394798Y-64881759D01*
X70989798Y-64180279D01*
X71795202Y-63715279D01*
X72200202Y-64416759D01*
G37*
G36*
X73010202Y-65819721D02*
G01*
X72204798Y-66284721D01*
X71799798Y-65583241D01*
X72605202Y-65118241D01*
X73010202Y-65819721D01*
G37*
D17*
X77000000Y-63190000D03*
X77000000Y-64810000D03*
M02*
