G04 #@! TF.GenerationSoftware,KiCad,Pcbnew,(5.99.0-11497-g0fb864d596)*
G04 #@! TF.CreationDate,2021-08-10T19:57:58-04:00*
G04 #@! TF.ProjectId,K40-LED_PCB,4b34302d-4c45-4445-9f50-43422e6b6963,rev?*
G04 #@! TF.SameCoordinates,Original*
G04 #@! TF.FileFunction,Legend,Bot*
G04 #@! TF.FilePolarity,Positive*
%FSLAX46Y46*%
G04 Gerber Fmt 4.6, Leading zero omitted, Abs format (unit mm)*
G04 Created by KiCad (PCBNEW (5.99.0-11497-g0fb864d596)) date 2021-08-10 19:57:58*
%MOMM*%
%LPD*%
G01*
G04 APERTURE LIST*
%ADD10C,0.400000*%
%ADD11C,3.500000*%
%ADD12C,0.300000*%
G04 APERTURE END LIST*
%LPC*%
D10*
X90928200Y-136020366D03*
X91528200Y-136020366D03*
X89728200Y-135320866D03*
X90328200Y-136020366D03*
X89128200Y-136020366D03*
X92128200Y-136020366D03*
X89128200Y-135320866D03*
X92728200Y-135320866D03*
X91528200Y-135320866D03*
X90928200Y-135320866D03*
X89728200Y-136020366D03*
X90328200Y-135320866D03*
X92728200Y-136020366D03*
X92128200Y-135320866D03*
D11*
X142500000Y-97000000D03*
X150500000Y-97000000D03*
D10*
X81922016Y-111224960D03*
X80719581Y-113416637D03*
X80295317Y-113840901D03*
X82416637Y-111719581D03*
X81497752Y-111649224D03*
X81992373Y-112143845D03*
X80649224Y-112497752D03*
X82840901Y-111295317D03*
X81568109Y-112568109D03*
X79800696Y-113346280D03*
X82346280Y-110800695D03*
X80224960Y-112922016D03*
X81073488Y-112073488D03*
X81143845Y-112992373D03*
X77225500Y-120155127D03*
X77925000Y-120755127D03*
X77925000Y-121355127D03*
X77225500Y-121955127D03*
X77925000Y-121955127D03*
X77925000Y-122555127D03*
X77925000Y-123155127D03*
X77225500Y-122555127D03*
X77225500Y-121355127D03*
X77225500Y-123755127D03*
X77925000Y-120155127D03*
X77225500Y-123155127D03*
X77925000Y-123755127D03*
X77225500Y-120755127D03*
X104275000Y-123200000D03*
X104974500Y-120800000D03*
X104275000Y-121400000D03*
X104275000Y-120800000D03*
X104974500Y-121400000D03*
X104974500Y-123800000D03*
X104275000Y-123800000D03*
X104974500Y-123200000D03*
X104974500Y-122600000D03*
X104275000Y-120200000D03*
X104275000Y-122600000D03*
X104275000Y-122000000D03*
X104974500Y-120200000D03*
X104974500Y-122000000D03*
D12*
X64990000Y-115300000D03*
X62390000Y-116600000D03*
X61090000Y-115300000D03*
X63690000Y-116600000D03*
X61090000Y-116600000D03*
X62390000Y-115300000D03*
X64990000Y-116600000D03*
X63690000Y-115300000D03*
X63950000Y-133014000D03*
X62650000Y-130414000D03*
X63950000Y-131714000D03*
X62650000Y-131714000D03*
X62650000Y-133014000D03*
X62650000Y-129114000D03*
X63950000Y-130414000D03*
X63950000Y-129114000D03*
X119014000Y-133014000D03*
X119014000Y-130414000D03*
X117714000Y-130414000D03*
X119014000Y-131714000D03*
X117714000Y-131714000D03*
X119014000Y-129114000D03*
X117714000Y-129114000D03*
X117714000Y-133014000D03*
D10*
X100926512Y-111640845D03*
X101280419Y-112983994D03*
X102199305Y-112913637D03*
X100856155Y-112559730D03*
X99653720Y-110368053D03*
X101704683Y-113408258D03*
X101350776Y-112065109D03*
X100502248Y-111216581D03*
X100007627Y-111711202D03*
X99159099Y-110862674D03*
X100431891Y-112135466D03*
X100077984Y-110792317D03*
X99583363Y-111286938D03*
X101775040Y-112489373D03*
X82840901Y-132704683D03*
X80224960Y-131077984D03*
X81073488Y-131926512D03*
X81992373Y-131856155D03*
X81497752Y-132350776D03*
X80719581Y-130583363D03*
X80649224Y-131502248D03*
X80295317Y-130159099D03*
X81922016Y-132775040D03*
X79800695Y-130653720D03*
X81143845Y-131007627D03*
X81568109Y-131431891D03*
X82416637Y-132280419D03*
X82346280Y-133199304D03*
X102199304Y-130653720D03*
X100007627Y-131856155D03*
X100431891Y-131431891D03*
X99159099Y-132704683D03*
X99653720Y-133199305D03*
X101350776Y-131502248D03*
X100856155Y-131007627D03*
X100502248Y-132350776D03*
X101775040Y-131077984D03*
X99583363Y-132280419D03*
X100926512Y-131926512D03*
X101280419Y-130583363D03*
X101704683Y-130159099D03*
X100077984Y-132775040D03*
X92161200Y-108273700D03*
X92161200Y-108973200D03*
X91561200Y-108973200D03*
X92761200Y-108273700D03*
X89761200Y-108973200D03*
X92761200Y-108973200D03*
X89161200Y-108973200D03*
X91561200Y-108273700D03*
X89161200Y-108273700D03*
X90961200Y-108973200D03*
X90961200Y-108273700D03*
X90361200Y-108273700D03*
X89761200Y-108273700D03*
X90361200Y-108973200D03*
D12*
X117454000Y-115428000D03*
X117454000Y-116728000D03*
X120054000Y-116728000D03*
X116154000Y-116728000D03*
X118754000Y-116728000D03*
X118754000Y-115428000D03*
X116154000Y-115428000D03*
X120054000Y-115428000D03*
G36*
X92917121Y-135070002D02*
G01*
X92963614Y-135123658D01*
X92975000Y-135176000D01*
X92975000Y-136174000D01*
X92954998Y-136242121D01*
X92901342Y-136288614D01*
X92849000Y-136300000D01*
X88976000Y-136300000D01*
X88907879Y-136279998D01*
X88861386Y-136226342D01*
X88850000Y-136174000D01*
X88850000Y-135176000D01*
X88870002Y-135107879D01*
X88923658Y-135061386D01*
X88976000Y-135050000D01*
X92849000Y-135050000D01*
X92917121Y-135070002D01*
G37*
G36*
X78142121Y-119920002D02*
G01*
X78188614Y-119973658D01*
X78200000Y-120026000D01*
X78200000Y-123899000D01*
X78179998Y-123967121D01*
X78126342Y-124013614D01*
X78074000Y-124025000D01*
X77076000Y-124025000D01*
X77007879Y-124004998D01*
X76961386Y-123951342D01*
X76950000Y-123899000D01*
X76950000Y-120026000D01*
X76970002Y-119957879D01*
X77023658Y-119911386D01*
X77076000Y-119900000D01*
X78074000Y-119900000D01*
X78142121Y-119920002D01*
G37*
G36*
X99694032Y-110010134D02*
G01*
X99739095Y-110039095D01*
X102535905Y-112835905D01*
X102569931Y-112898217D01*
X102564866Y-112969032D01*
X102535905Y-113014095D01*
X101789095Y-113760905D01*
X101726783Y-113794931D01*
X101655968Y-113789866D01*
X101610905Y-113760905D01*
X98814095Y-110964095D01*
X98780069Y-110901783D01*
X98785134Y-110830968D01*
X98814095Y-110785905D01*
X99560905Y-110039095D01*
X99623217Y-110005069D01*
X99694032Y-110010134D01*
G37*
G36*
X119830121Y-128417002D02*
G01*
X119876614Y-128470658D01*
X119888000Y-128523000D01*
X119888000Y-133605000D01*
X119867998Y-133673121D01*
X119814342Y-133719614D01*
X119762000Y-133731000D01*
X116966000Y-133731000D01*
X116897879Y-133710998D01*
X116851386Y-133657342D01*
X116840000Y-133605000D01*
X116840000Y-128523000D01*
X116860002Y-128454879D01*
X116913658Y-128408386D01*
X116966000Y-128397000D01*
X119762000Y-128397000D01*
X119830121Y-128417002D01*
G37*
G36*
X64755121Y-128420002D02*
G01*
X64801614Y-128473658D01*
X64813000Y-128526000D01*
X64813000Y-133608000D01*
X64792998Y-133676121D01*
X64739342Y-133722614D01*
X64687000Y-133734000D01*
X61891000Y-133734000D01*
X61822879Y-133713998D01*
X61776386Y-133660342D01*
X61765000Y-133608000D01*
X61765000Y-128526000D01*
X61785002Y-128457879D01*
X61838658Y-128411386D01*
X61891000Y-128400000D01*
X64687000Y-128400000D01*
X64755121Y-128420002D01*
G37*
G36*
X92967121Y-108020002D02*
G01*
X93013614Y-108073658D01*
X93025000Y-108126000D01*
X93025000Y-109124000D01*
X93004998Y-109192121D01*
X92951342Y-109238614D01*
X92899000Y-109250000D01*
X89026000Y-109250000D01*
X88957879Y-109229998D01*
X88911386Y-109176342D01*
X88900000Y-109124000D01*
X88900000Y-108126000D01*
X88920002Y-108057879D01*
X88973658Y-108011386D01*
X89026000Y-108000000D01*
X92899000Y-108000000D01*
X92967121Y-108020002D01*
G37*
G36*
X101744032Y-129810134D02*
G01*
X101789095Y-129839095D01*
X102535905Y-130585905D01*
X102569931Y-130648217D01*
X102564866Y-130719032D01*
X102535905Y-130764095D01*
X99739095Y-133560905D01*
X99676783Y-133594931D01*
X99605968Y-133589866D01*
X99560905Y-133560905D01*
X98814095Y-132814095D01*
X98780069Y-132751783D01*
X98785134Y-132680968D01*
X98814095Y-132635905D01*
X101610905Y-129839095D01*
X101673217Y-129805069D01*
X101744032Y-129810134D01*
G37*
G36*
X105192121Y-119970002D02*
G01*
X105238614Y-120023658D01*
X105250000Y-120076000D01*
X105250000Y-123949000D01*
X105229998Y-124017121D01*
X105176342Y-124063614D01*
X105124000Y-124075000D01*
X104126000Y-124075000D01*
X104057879Y-124054998D01*
X104011386Y-124001342D01*
X104000000Y-123949000D01*
X104000000Y-120076000D01*
X104020002Y-120007879D01*
X104073658Y-119961386D01*
X104126000Y-119950000D01*
X105124000Y-119950000D01*
X105192121Y-119970002D01*
G37*
G36*
X120719121Y-114574002D02*
G01*
X120765614Y-114627658D01*
X120777000Y-114680000D01*
X120777000Y-117476000D01*
X120756998Y-117544121D01*
X120703342Y-117590614D01*
X120651000Y-117602000D01*
X115569000Y-117602000D01*
X115500879Y-117581998D01*
X115454386Y-117528342D01*
X115443000Y-117476000D01*
X115443000Y-114680000D01*
X115463002Y-114611879D01*
X115516658Y-114565386D01*
X115569000Y-114554000D01*
X120651000Y-114554000D01*
X120719121Y-114574002D01*
G37*
G36*
X82394032Y-110435134D02*
G01*
X82439095Y-110464095D01*
X83185905Y-111210905D01*
X83219931Y-111273217D01*
X83214866Y-111344032D01*
X83185905Y-111389095D01*
X80389095Y-114185905D01*
X80326783Y-114219931D01*
X80255968Y-114214866D01*
X80210905Y-114185905D01*
X79464095Y-113439095D01*
X79430069Y-113376783D01*
X79435134Y-113305968D01*
X79464095Y-113260905D01*
X82260905Y-110464095D01*
X82323217Y-110430069D01*
X82394032Y-110435134D01*
G37*
G36*
X65651121Y-114445002D02*
G01*
X65697614Y-114498658D01*
X65709000Y-114551000D01*
X65709000Y-117347000D01*
X65688998Y-117415121D01*
X65635342Y-117461614D01*
X65583000Y-117473000D01*
X60501000Y-117473000D01*
X60432879Y-117452998D01*
X60386386Y-117399342D01*
X60375000Y-117347000D01*
X60375000Y-114551000D01*
X60395002Y-114482879D01*
X60448658Y-114436386D01*
X60501000Y-114425000D01*
X65583000Y-114425000D01*
X65651121Y-114445002D01*
G37*
G36*
X80344032Y-129785134D02*
G01*
X80389095Y-129814095D01*
X83185905Y-132610905D01*
X83219931Y-132673217D01*
X83214866Y-132744032D01*
X83185905Y-132789095D01*
X82439095Y-133535905D01*
X82376783Y-133569931D01*
X82305968Y-133564866D01*
X82260905Y-133535905D01*
X79464095Y-130739095D01*
X79430069Y-130676783D01*
X79435134Y-130605968D01*
X79464095Y-130560905D01*
X80210905Y-129814095D01*
X80273217Y-129780069D01*
X80344032Y-129785134D01*
G37*
M02*
