G04 #@! TF.GenerationSoftware,KiCad,Pcbnew,(5.1.8)-1*
G04 #@! TF.CreationDate,2021-07-03T09:41:28-04:00*
G04 #@! TF.ProjectId,K40-LED_PCB,4b34302d-4c45-4445-9f50-43422e6b6963,rev?*
G04 #@! TF.SameCoordinates,Original*
G04 #@! TF.FileFunction,Soldermask,Top*
G04 #@! TF.FilePolarity,Negative*
%FSLAX46Y46*%
G04 Gerber Fmt 4.6, Leading zero omitted, Abs format (unit mm)*
G04 Created by KiCad (PCBNEW (5.1.8)-1) date 2021-07-03 09:41:28*
%MOMM*%
%LPD*%
G01*
G04 APERTURE LIST*
%ADD10R,5.000000X5.000000*%
%ADD11C,0.100000*%
%ADD12R,0.810000X0.930000*%
%ADD13R,0.930000X0.810000*%
G04 APERTURE END LIST*
G36*
G01*
X91300001Y-69000000D02*
X90399999Y-69000000D01*
G75*
G02*
X90150000Y-68750001I0J249999D01*
G01*
X90150000Y-68224999D01*
G75*
G02*
X90399999Y-67975000I249999J0D01*
G01*
X91300001Y-67975000D01*
G75*
G02*
X91550000Y-68224999I0J-249999D01*
G01*
X91550000Y-68750001D01*
G75*
G02*
X91300001Y-69000000I-249999J0D01*
G01*
G37*
G36*
G01*
X91300001Y-70825000D02*
X90399999Y-70825000D01*
G75*
G02*
X90150000Y-70575001I0J249999D01*
G01*
X90150000Y-70049999D01*
G75*
G02*
X90399999Y-69800000I249999J0D01*
G01*
X91300001Y-69800000D01*
G75*
G02*
X91550000Y-70049999I0J-249999D01*
G01*
X91550000Y-70575001D01*
G75*
G02*
X91300001Y-70825000I-249999J0D01*
G01*
G37*
D10*
X97743000Y-76595000D03*
X97743000Y-69595000D03*
D11*
G36*
X85118241Y-78605202D02*
G01*
X85583241Y-77799798D01*
X86284721Y-78204798D01*
X85819721Y-79010202D01*
X85118241Y-78605202D01*
G37*
G36*
X83715279Y-77795202D02*
G01*
X84180279Y-76989798D01*
X84881759Y-77394798D01*
X84416759Y-78200202D01*
X83715279Y-77795202D01*
G37*
G36*
X68416759Y-77799798D02*
G01*
X68881759Y-78605202D01*
X68180279Y-79010202D01*
X67715279Y-78204798D01*
X68416759Y-77799798D01*
G37*
G36*
X69819721Y-76989798D02*
G01*
X70284721Y-77795202D01*
X69583241Y-78200202D01*
X69118241Y-77394798D01*
X69819721Y-76989798D01*
G37*
D12*
X85190000Y-73000000D03*
X86810000Y-73000000D03*
D11*
G36*
X80989798Y-80180279D02*
G01*
X81795202Y-79715279D01*
X82200202Y-80416759D01*
X81394798Y-80881759D01*
X80989798Y-80180279D01*
G37*
G36*
X81799798Y-81583241D02*
G01*
X82605202Y-81118241D01*
X83010202Y-81819721D01*
X82204798Y-82284721D01*
X81799798Y-81583241D01*
G37*
D12*
X68810000Y-73000000D03*
X67190000Y-73000000D03*
D11*
G36*
X84180279Y-69010202D02*
G01*
X83715279Y-68204798D01*
X84416759Y-67799798D01*
X84881759Y-68605202D01*
X84180279Y-69010202D01*
G37*
G36*
X85583241Y-68200202D02*
G01*
X85118241Y-67394798D01*
X85819721Y-66989798D01*
X86284721Y-67795202D01*
X85583241Y-68200202D01*
G37*
D13*
X77000000Y-81190000D03*
X77000000Y-82810000D03*
D11*
G36*
X70284721Y-68204798D02*
G01*
X69819721Y-69010202D01*
X69118241Y-68605202D01*
X69583241Y-67799798D01*
X70284721Y-68204798D01*
G37*
G36*
X68881759Y-67394798D02*
G01*
X68416759Y-68200202D01*
X67715279Y-67795202D01*
X68180279Y-66989798D01*
X68881759Y-67394798D01*
G37*
G36*
X81795202Y-66284721D02*
G01*
X80989798Y-65819721D01*
X81394798Y-65118241D01*
X82200202Y-65583241D01*
X81795202Y-66284721D01*
G37*
G36*
X82605202Y-64881759D02*
G01*
X81799798Y-64416759D01*
X82204798Y-63715279D01*
X83010202Y-64180279D01*
X82605202Y-64881759D01*
G37*
G36*
X72204798Y-79715279D02*
G01*
X73010202Y-80180279D01*
X72605202Y-80881759D01*
X71799798Y-80416759D01*
X72204798Y-79715279D01*
G37*
G36*
X71394798Y-81118241D02*
G01*
X72200202Y-81583241D01*
X71795202Y-82284721D01*
X70989798Y-81819721D01*
X71394798Y-81118241D01*
G37*
G36*
X72200202Y-64416759D02*
G01*
X71394798Y-64881759D01*
X70989798Y-64180279D01*
X71795202Y-63715279D01*
X72200202Y-64416759D01*
G37*
G36*
X73010202Y-65819721D02*
G01*
X72204798Y-66284721D01*
X71799798Y-65583241D01*
X72605202Y-65118241D01*
X73010202Y-65819721D01*
G37*
D13*
X77000000Y-63190000D03*
X77000000Y-64810000D03*
M02*
